<?xml version="1.0" encoding="UTF-8"?>
<svg id="Layer_2" data-name="Layer 2" xmlns="http://www.w3.org/2000/svg" xmlns:xlink="http://www.w3.org/1999/xlink" viewBox="0 0 736.62 356.06">
  <defs>
    <style>
      .cls-1 {
        filter: url(#drop-shadow-1);
      }

      .cls-2 {
        filter: url(#drop-shadow-2);
      }

      .cls-3 {
        fill: #fff;
      }

      .cls-3, .cls-4 {
        stroke-width: 0px;
      }

      .cls-4 {
        fill: #fbb118;
      }
    </style>
    <filter id="drop-shadow-1" filterUnits="userSpaceOnUse">
      <feOffset dx="4" dy="3"/>
      <feGaussianBlur result="blur" stdDeviation="4"/>
      <feFlood flood-color="#000" flood-opacity=".5"/>
      <feComposite in2="blur" operator="in"/>
      <feComposite in="SourceGraphic"/>
    </filter>
    <filter id="drop-shadow-2" filterUnits="userSpaceOnUse">
      <feOffset dx="4" dy="3"/>
      <feGaussianBlur result="blur-2" stdDeviation="4"/>
      <feFlood flood-color="#000" flood-opacity=".5"/>
      <feComposite in2="blur-2" operator="in"/>
      <feComposite in="SourceGraphic"/>
    </filter>
  </defs>
  <g id="Layer_1-2" data-name="Layer 1">
    <g>
      <g class="cls-1">
        <g>
          <path class="cls-3" d="M0,2.05h59.89c37.86,0,56.45,15.64,56.45,44.37v90.78c0,28.72-18.59,44.37-56.45,44.37H0V2.05ZM37.86,27.7v128.22h21.34c12.05,0,19.28-4.62,19.28-17.44V45.13c0-12.82-7.23-17.44-19.28-17.44h-21.34Z"/>
          <path class="cls-3" d="M262.64,181.56h-38.21l-6.54-32.57h-46.47l-6.54,32.57h-34.77L168.67,2.05h55.42l38.55,179.51ZM176.24,124.63h36.49l-18.24-90.78-18.24,90.78Z"/>
          <path class="cls-3" d="M336.99,81.55h53.01v56.93c0,28.72-19.28,45.14-56.45,45.14s-56.45-16.41-56.45-45.14V45.13c0-28.72,19.28-45.13,56.45-45.13s56.45,16.41,56.45,45.13v17.44h-35.8v-19.23c0-12.82-7.57-17.69-19.62-17.69s-19.62,4.87-19.62,17.69v96.94c0,12.82,7.57,17.44,19.62,17.44s19.62-4.62,19.62-17.44v-33.08h-17.21v-25.64Z"/>
          <path class="cls-3" d="M414.44,2.05h37.86v179.51h-37.86V2.05Z"/>
          <path class="cls-3" d="M513.57,51.55v130.02h-34.08V2.05h47.5l38.9,107.45V2.05h33.74v179.51h-38.9l-47.16-130.02Z"/>
          <path class="cls-3" d="M683.61,81.55h53.01v56.93c0,28.72-19.28,45.14-56.45,45.14s-56.45-16.41-56.45-45.14V45.13c0-28.72,19.28-45.13,56.45-45.13s56.45,16.41,56.45,45.13v17.44h-35.8v-19.23c0-12.82-7.57-17.69-19.62-17.69s-19.62,4.87-19.62,17.69v96.94c0,12.82,7.57,17.44,19.62,17.44s19.62-4.62,19.62-17.44v-33.08h-17.21v-25.64Z"/>
        </g>
      </g>
      <g class="cls-2">
        <path class="cls-4" d="M71.89,311.94l20.95-103.44h42.74v145.69h-29.05v-104.48l-21.23,104.48h-29.05l-22.91-103.02v103.02H6.52v-145.69h42.74l22.63,103.44Z"/>
        <path class="cls-4" d="M188.67,269.9h42.18v20.81h-42.18v42.67h53.08v20.81h-83.81v-145.69h83.81v20.81h-53.08v40.58Z"/>
        <path class="cls-4" d="M324.99,354.19c-1.68-3.75-2.79-6.04-2.79-17.9v-22.89c0-13.53-6.15-18.52-20.11-18.52h-10.61v59.31h-30.73v-145.69h46.37c31.85,0,45.54,11.03,45.54,33.51v11.45c0,14.99-6.43,24.77-20.11,29.55,15.36,4.79,20.39,15.82,20.39,31.01v22.48c0,7.08.28,12.28,3.35,17.69h-31.29ZM291.47,229.31v44.75h12.01c11.45,0,18.44-3.75,18.44-15.4v-14.36c0-10.41-4.75-14.99-15.64-14.99h-14.81Z"/>
        <path class="cls-4" d="M472.5,354.19h-31.01l-5.31-26.43h-37.71l-5.31,26.43h-28.22l31.29-145.69h44.97l31.29,145.69ZM402.38,307.98h29.61l-14.81-73.67-14.81,73.67Z"/>
        <path class="cls-4" d="M516.08,208.5v112.39c0,10.41,6.15,14.15,15.92,14.15s15.92-3.75,15.92-14.15v-112.39h29.06v110.93c0,23.31-15.65,36.63-45.82,36.63s-45.82-13.32-45.82-36.63v-110.93h30.73Z"/>
        <path class="cls-4" d="M663.03,311.94l20.95-103.44h42.74v145.69h-29.05v-104.48l-21.23,104.48h-29.05l-22.91-103.02v103.02h-26.82v-145.69h42.74l22.63,103.44Z"/>
      </g>
    </g>
  </g>
</svg>